<?xml version="1.0" encoding="utf-8"?>
<svg id="master-artboard" viewBox="0 0 1400 980" version="1.1" xmlns="http://www.w3.org/2000/svg" x="0px" y="0px" width="1400px" height="980px" enable-background="new 0 0 1400 980">

<path d="M 0 0 H 1400 V 980 H 0 V 0 Z" id="XMLID_107_" fill-rule="evenodd" clip-rule="evenodd" fill="url(#XMLID_110_)"/>
<g id="XMLID_1_" transform="matrix(1, 0, 0, 1, -94.94559902761807, 7.912133334269356)">
	<path id="XMLID_2_" fill-rule="evenodd" clip-rule="evenodd" fill="#80B5D7" d="M533.7,630.5h35.4l398.7-228.6&#10;&#9;&#9;c20.2-11.7,51.1-12.9,68.5-2.8l143,82.5h38.8v33.3c-0.3,7.7-5.9,15.7-16.7,21.9L784.1,776.2c-20.2,11.7-51.1,12.9-68.6,2.8&#10;&#9;&#9;l-170-98.2c-8.4-4.8-12.2-11.4-11.8-18.2h-0.1V630.5z"/>
	<path id="XMLID_3_" fill-rule="evenodd" clip-rule="evenodd" fill="#80B5D7" d="M550.5,609.1c-20.2,11.7-22.5,29.5-4.9,39.6&#10;&#9;&#9;l170,98.2c17.5,10.1,48.4,8.8,68.6-2.9l417.4-239.4c20.2-11.7,22.4-29.5,4.9-39.6l-170.1-98.2c-17.5-10.1-48.3-8.8-68.5,2.8&#10;&#9;&#9;L550.5,609.1z"/>
	<path id="XMLID_4_" fill-rule="evenodd" clip-rule="evenodd" fill="#80B5D7" d="M721.1,743.7c14.9,8.6,41.1,7.5,58.3-2.4&#10;&#9;&#9;l417.4-239.4c17.2-9.9,19.1-25,4.2-33.6L1030.9,370c-14.9-8.6-41-7.5-58.3,2.4L555.2,611.9c-17.2,10-19.1,25-4.2,33.6L721.1,743.7z&#10;&#9;&#9;"/>
	<path d="M 603.4000244140625 594.5999755859375 L 809.2000122070312 713.4000244140625 L 1147.4000244140625 519.7000122070312 L 941.5999755859375 400.8999938964844 Z" id="XMLID_5_" fill-rule="evenodd" clip-rule="evenodd" fill="#80B5D7"/>
	<path d="M 941.5999755859375 400.8999938964844 L 809.2000122070312 713.4000244140625 L 1147.4000244140625 519.7000122070312 Z" id="XMLID_6_" fill-rule="evenodd" clip-rule="evenodd" fill="#80B5D7"/>
	
		<path d="M 436.70001220703125 242.39999389648438 L 730.9000244140625 411.79998779296875 L 730.9000244140625 505.70001220703125 L 436.70001220703125 336.20001220703125 Z" id="XMLID_7_" fill-rule="evenodd" clip-rule="evenodd" fill="#705F47" stroke="#705F47" stroke-width="0.2268" stroke-miterlimit="10"/>
	
		<path d="M 730.9000244140625 505.70001220703125 L 925.2999877929688 393.70001220703125 L 925.2999877929688 299.79998779296875 L 730.9000244140625 411.79998779296875 Z" id="XMLID_8_" fill-rule="evenodd" clip-rule="evenodd" fill="#705F47" stroke="#705F47" stroke-width="0.2268" stroke-miterlimit="10"/>
	
		<path d="M 436.70001220703125 242.39999389648438 L 631.2000122070312 130.39999389648438 L 925.2999877929688 299.79998779296875 L 730.9000244140625 411.79998779296875 Z" id="XMLID_9_" fill-rule="evenodd" clip-rule="evenodd" fill="#705F47" stroke="#705F47" stroke-width="0.2268" stroke-miterlimit="10"/>
	
		<path d="M 448.1000061035156 281.6000061035156 L 520.4000244140625 323.29998779296875 L 520.4000244140625 336.70001220703125 L 448.1000061035156 295 Z" id="XMLID_10_" fill-rule="evenodd" clip-rule="evenodd" fill="#705F47" stroke="#705F47" stroke-width="0.2268" stroke-miterlimit="10"/>
	
		<path d="M 448.1000061035156 301.79998779296875 L 520.4000244140625 343.5 L 520.4000244140625 356.79998779296875 L 448.1000061035156 315.20001220703125 Z" id="XMLID_11_" fill-rule="evenodd" clip-rule="evenodd" fill="#705F47" stroke="#705F47" stroke-width="0.2268" stroke-miterlimit="10"/>
	
		<path d="M 526.5999755859375 331.3999938964844 L 719.5 442.29998779296875 L 719.5 466.3999938964844 L 526.5999755859375 355.5 Z" id="XMLID_12_" fill-rule="evenodd" clip-rule="evenodd" fill="#705F47" stroke="#705F47" stroke-width="0.2268" stroke-miterlimit="10"/>
	
		<path d="M 529.5 254.8000030517578 L 552.0999755859375 267.79998779296875 L 540.5999755859375 274.3999938964844 L 518 261.3999938964844 Z" id="XMLID_13_" fill-rule="evenodd" clip-rule="evenodd" fill="#705F47" stroke="#705F47" stroke-width="0.2268" stroke-miterlimit="10"/>
	
		<path d="M 597.4000244140625 293.70001220703125 L 620 306.70001220703125 L 608.5 313.29998779296875 L 585.9000244140625 300.29998779296875 Z" id="XMLID_14_" fill-rule="evenodd" clip-rule="evenodd" fill="#705F47" stroke="#705F47" stroke-width="0.2268" stroke-miterlimit="10"/>
	
		<path d="M 665.2999877929688 332.6000061035156 L 687.9000244140625 345.6000061035156 L 676.4000244140625 352.29998779296875 L 653.7999877929688 339.20001220703125 Z" id="XMLID_15_" fill-rule="evenodd" clip-rule="evenodd" fill="#705F47" stroke="#705F47" stroke-width="0.2268" stroke-miterlimit="10"/>
	<path d="M 843.5 376.1000061035156 L 849.2000122070312 385.3999938964844 L 1117.5 229.6999969482422 L 1111.699951171875 220.39999389648438 Z" id="XMLID_16_" fill-rule="evenodd" clip-rule="evenodd" fill="#80B5D7"/>
	<path d="M 843.5 371.5 L 849.2000122070312 380.79998779296875 L 1117.5 225.1999969482422 L 1111.699951171875 215.8000030517578 Z" id="XMLID_17_" fill-rule="evenodd" clip-rule="evenodd" fill="#231914"/>
	<path id="XMLID_18_" fill-rule="evenodd" clip-rule="evenodd" fill="#80B5D7" d="M412.7,606.4c9.8,5.6,17,12.3,20.2,18.6&#10;&#9;&#9;c3.3,6.5,2.5,12.6-3.5,16.5c-6.1,4-16.3,4.9-27.6,3c-11.2-1.8-23.3-6.3-33.4-12.9c-9.8-6.3-15.7-13.3-17.5-19.5&#10;&#9;&#9;c-1.7-5.9,0.4-11.1,6.6-14.2c6.1-3.1,15.1-3.7,24.8-2.2C392.2,597.3,402.9,600.9,412.7,606.4L412.7,606.4z"/>
	<path d="M 358.6000061035156 468.79998779296875 L 468.70001220703125 405.3999938964844 L 468.70001220703125 405.3999938964844 L 475.3999938964844 409.20001220703125 L 484.29998779296875 404.20001220703125 L 477.6000061035156 400.29998779296875 L 477.6000061035156 400.29998779296875 L 492.70001220703125 391.6000061035156 L 550.5 387.5 L 653.7999877929688 447 L 620.5999755859375 466.1000061035156 L 615.2000122070312 463 L 575 486.1000061035156 L 580.5 489.20001220703125 L 487.29998779296875 542.9000244140625 Z" id="XMLID_19_" fill-rule="evenodd" clip-rule="evenodd" fill="#80B5D7"/>
	<path d="M 484.29998779296875 404.20001220703125 L 477.5 400.29998779296875 L 477.5 408.1000061035156 Z" id="XMLID_20_" fill-rule="evenodd" clip-rule="evenodd" fill="#80B5D7"/>
	<path d="M 358.6000061035156 468.79998779296875 L 487.29998779296875 542.9000244140625 L 487.29998779296875 555 L 358.6000061035156 480.8999938964844 Z" id="XMLID_21_" fill-rule="evenodd" clip-rule="evenodd" fill="#80B5D7"/>
	<path id="XMLID_23_" fill-rule="evenodd" clip-rule="evenodd" fill="#80B5D7" d="M487.3,555l93.2-53.9v-11.9l-93.2,53.7V555z&#10;&#9;&#9; M653.8,458.7V447l-33.2,19.1l0,0v11.6L653.8,458.7z"/>
	<path d="M 615.2000122070312 463 L 615.2000122070312 474.3999938964844 L 620.5999755859375 477.70001220703125 L 620.5999755859375 466.1000061035156 Z" id="XMLID_25_" fill-rule="evenodd" clip-rule="evenodd" fill="#80B5D7"/>
	<path d="M 615.2000122070312 463 L 615.2000122070312 474.3999938964844 L 580.5 494.5 L 580.5 489.20001220703125 L 575 486.1000061035156 Z" id="XMLID_26_" fill-rule="evenodd" clip-rule="evenodd" fill="#80B5D7"/>
	<path d="M 503.3999938964844 415.20001220703125 L 531 399.29998779296875 L 521.0999755859375 393.70001220703125 L 493.6000061035156 409.5 Z" id="XMLID_27_" fill-rule="evenodd" clip-rule="evenodd" fill="#80B5D7"/>
	<path d="M 532.7999877929688 415.3999938964844 L 560.2999877929688 399.5 L 550.5 393.8999938964844 L 522.9000244140625 409.70001220703125 Z" id="XMLID_28_" fill-rule="evenodd" clip-rule="evenodd" fill="#80B5D7"/>
	<path d="M 546.4000244140625 423.3999938964844 L 573.9000244140625 407.5 L 564.0999755859375 401.79998779296875 L 536.5 417.70001220703125 Z" id="XMLID_29_" fill-rule="evenodd" clip-rule="evenodd" fill="#80B5D7"/>
	<path d="M 560 431.29998779296875 L 587.5999755859375 415.3999938964844 L 577.7000122070312 409.79998779296875 L 550.2000122070312 425.6000061035156 Z" id="XMLID_30_" fill-rule="evenodd" clip-rule="evenodd" fill="#80B5D7"/>
	<path d="M 573.5999755859375 439.20001220703125 L 601.2000122070312 423.3999938964844 L 591.2999877929688 417.70001220703125 L 563.7999877929688 433.6000061035156 Z" id="XMLID_31_" fill-rule="evenodd" clip-rule="evenodd" fill="#80B5D7"/>
	<path d="M 587.2000122070312 447.20001220703125 L 614.7999877929688 431.29998779296875 L 605 425.70001220703125 L 577.4000244140625 441.5 Z" id="XMLID_32_" fill-rule="evenodd" clip-rule="evenodd" fill="#80B5D7"/>
	<path d="M 600.9000244140625 455.1000061035156 L 628.4000244140625 439.29998779296875 L 618.5999755859375 433.6000061035156 L 591 449.5 Z" id="XMLID_33_" fill-rule="evenodd" clip-rule="evenodd" fill="#80B5D7"/>
	<path d="M 442.5 251.1999969482422 L 720.2000122070312 411.20001220703125 L 720.2000122070312 499.79998779296875 L 442.5 339.79998779296875 Z" id="XMLID_34_" fill-rule="evenodd" clip-rule="evenodd" fill="#80B5D7"/>
	<path d="M 720.2000122070312 499.79998779296875 L 903.9000244140625 394 L 903.9000244140625 305.3999938964844 L 720.2000122070312 411.20001220703125 Z" id="XMLID_35_" fill-rule="evenodd" clip-rule="evenodd" fill="#80B5D7"/>
	<path d="M 442.5 251.1999969482422 L 626.2000122070312 145.39999389648438 L 903.9000244140625 305.3999938964844 L 720.2000122070312 411.20001220703125 Z" id="XMLID_36_" fill-rule="evenodd" clip-rule="evenodd" fill="#80B5D7"/>
	<path d="M 453.29998779296875 288.29998779296875 L 521.5 327.6000061035156 L 521.5 340.20001220703125 L 453.29998779296875 300.8999938964844 Z" id="XMLID_37_" fill-rule="evenodd" clip-rule="evenodd" fill="#80B5D7"/>
	<path d="M 453.29998779296875 307.29998779296875 L 521.5 346.6000061035156 L 521.5 359.29998779296875 L 453.29998779296875 319.8999938964844 Z" id="XMLID_38_" fill-rule="evenodd" clip-rule="evenodd" fill="#80B5D7"/>
	<path d="M 527.4000244140625 335.20001220703125 L 709.5 439.8999938964844 L 709.5 462.70001220703125 L 527.4000244140625 358 Z" id="XMLID_39_" fill-rule="evenodd" clip-rule="evenodd" fill="#80B5D7"/>
	<path d="M 530.0999755859375 262.8999938964844 L 551.4000244140625 275.20001220703125 L 540.5999755859375 281.3999938964844 L 519.2000122070312 269.1000061035156 Z" id="XMLID_40_" fill-rule="evenodd" clip-rule="evenodd" fill="#80B5D7"/>
	<path d="M 594.2000122070312 299.6000061035156 L 615.5999755859375 311.8999938964844 L 604.7000122070312 318.20001220703125 L 583.2999877929688 305.8999938964844 Z" id="XMLID_41_" fill-rule="evenodd" clip-rule="evenodd" fill="#80B5D7"/>
	<path d="M 658.2999877929688 336.3999938964844 L 679.7000122070312 348.70001220703125 L 668.7999877929688 354.8999938964844 L 647.4000244140625 342.6000061035156 Z" id="XMLID_42_" fill-rule="evenodd" clip-rule="evenodd" fill="#80B5D7"/>
	<path d="M 428.8999938964844 221.5 L 723 390.8999938964844 L 723 484.70001220703125 L 428.8999938964844 315.29998779296875 Z" id="XMLID_43_" fill-rule="evenodd" clip-rule="evenodd" fill="#C3BEBB"/>
	<path d="M 723 484.70001220703125 L 917.5 372.70001220703125 L 917.5 278.8999938964844 L 723 390.8999938964844 Z" id="XMLID_44_" fill-rule="evenodd" clip-rule="evenodd" fill="#9E9E9E"/>
	<path d="M 428.8999938964844 221.5 L 623.4000244140625 109.4000015258789 L 917.5 278.8999938964844 L 723 390.8999938964844 Z" id="XMLID_45_" fill-rule="evenodd" clip-rule="evenodd" fill="#F2EBE7"/>
	<path d="M 440.29998779296875 260.70001220703125 L 512.5999755859375 302.3999938964844 L 512.5999755859375 315.79998779296875 L 440.29998779296875 274.1000061035156 Z" id="XMLID_46_" fill-rule="evenodd" clip-rule="evenodd" fill="#2D2D2D"/>
	<path d="M 440.29998779296875 280.8999938964844 L 512.5999755859375 322.5 L 512.5999755859375 335.8999938964844 L 440.29998779296875 294.29998779296875 Z" id="XMLID_47_" fill-rule="evenodd" clip-rule="evenodd" fill="#2D2D2D"/>
	<path d="M 518.7000122070312 310.3999938964844 L 711.5999755859375 421.29998779296875 L 711.5999755859375 445.5 L 518.7000122070312 334.6000061035156 Z" id="XMLID_48_" fill-rule="evenodd" clip-rule="evenodd" fill="#2D2D2D"/>
	<path d="M 521.5999755859375 233.8000030517578 L 544.2999877929688 246.89999389648438 L 532.7999877929688 253.5 L 510.1000061035156 240.5 Z" id="XMLID_49_" fill-rule="evenodd" clip-rule="evenodd" fill="#E41E26"/>
	<path d="M 589.5 272.70001220703125 L 612.2000122070312 285.79998779296875 L 600.7000122070312 292.3999938964844 L 578 279.3999938964844 Z" id="XMLID_50_" fill-rule="evenodd" clip-rule="evenodd" fill="#E41E26"/>
	<path d="M 657.4000244140625 311.70001220703125 L 680.0999755859375 324.70001220703125 L 668.5999755859375 331.29998779296875 L 645.9000244140625 318.29998779296875 Z" id="XMLID_51_" fill-rule="evenodd" clip-rule="evenodd" fill="#E41E26"/>
	<path id="XMLID_52_" fill-rule="evenodd" clip-rule="evenodd" d="M420.7,482.5c-0.6-0.4-2.3,0.6-4.7,3.2c-0.6-0.2-1.3,0-1.9,0.4&#10;&#9;&#9;c-2.6,0.6-3.6-0.4-5.5-1.1c-0.2,0.2-1.5,1.9-1.5,2.6c-0.2,1.7,0,4.7,1.1,5.3c2.3,1.1,7.4,0.9,10,1.3c3.2,0.4,6.2,1.5,9.3,1.7&#10;&#9;&#9;c1.9,0.2,6.6-1.3,7.2-3.8c0.2-0.9-1.7-1.9-2.3-2.3c-3.4-3.2-6.8-3.4-10.6-6C421.5,483.1,421.1,482.7,420.7,482.5L420.7,482.5z"/>
	<path id="XMLID_53_" fill-rule="evenodd" clip-rule="evenodd" d="M393.5,462.9c-0.6-0.4-2.3,0.6-4.7,3.2c-0.6-0.2-1.3,0-1.9,0.4&#10;&#9;&#9;c-2.6,0.6-3.6-0.4-5.5-1.1c-0.2,0.2-1.5,1.9-1.5,2.6c-0.2,1.7,0,4.7,1.1,5.3c2.3,1.1,7.4,0.9,10,1.3c3.2,0.4,6.2,1.5,9.3,1.7&#10;&#9;&#9;c1.9,0.2,6,0.2,6.6-2.3c0.2-0.9-1.1-3.4-1.7-3.8c-3.4-3.2-6.8-3.4-10.6-6C394.3,463.8,393.9,463.3,393.5,462.9L393.5,462.9z"/>
	<path id="XMLID_54_" fill-rule="evenodd" clip-rule="evenodd" fill="#EEC3A1" d="M429,372.8l1.5,6.4c0,0,13.8,10.6,18.7,14.2&#10;&#9;&#9;c0,0,9.1,1.9,8.9,7c-0.2,5.1-8.1,6-13.6-1.3c0,0-16.2-6.8-19.8-10.4c-3.4-3.8-8.5-12.3-8.5-12.3L429,372.8z"/>
	<path id="XMLID_55_" fill-rule="evenodd" clip-rule="evenodd" fill="#231914" d="M416.2,379.2c0,0,4,0.2,8.7-1.5&#10;&#9;&#9;c4.5-1.7,5.9-3.2,5.9-3.2s-5.7-24.2-16.1-20.6C404.1,357.7,416.2,379.2,416.2,379.2L416.2,379.2z"/>
	<path id="XMLID_56_" fill-rule="evenodd" clip-rule="evenodd" fill="#343433" d="M416,417.6c0,0-9.4,27.6-12.1,31.9&#10;&#9;&#9;c-3,4.3-10.6,17.4-10.6,17.4s-9.4,4-11.7-0.8c0,0,2.3-15.9,7.9-23c0,0,4.7-28.5,8.1-30.4C400.7,410.8,416,417.6,416,417.6&#10;&#9;&#9;L416,417.6z"/>
	<path id="XMLID_57_" fill-rule="evenodd" clip-rule="evenodd" fill="#4A484A" d="M389.4,416.4c0,0-0.9,6.8,2.3,13&#10;&#9;&#9;c3.2,6.2,10.6,22.3,10.6,22.3l6.6,35.3c0,0,7,1.7,13.2-1.7c0,0-2.5-27.8-3.8-33.4c-1.1-5.5-8.1-33.2-8.1-33.2L389.4,416.4z"/>
	<path id="XMLID_58_" fill-rule="evenodd" clip-rule="evenodd" d="M417.1,352.8c0,0-16.6-5.3-29.5,7v58.9c0,0,17.4,6.4,31.5,0&#10;&#9;&#9;l3.2-57.6C422.2,361.1,421.1,355.4,417.1,352.8L417.1,352.8z"/>
	<path id="XMLID_59_" fill-rule="evenodd" clip-rule="evenodd" fill="#E4B492" d="M401.8,349.4l-4.9,4.9c0,0,3.2,10.6,11.1,7.7&#10;&#9;&#9;c7.9-3,1.7-10,1.7-10v-5.1L401.8,349.4z"/>
	<path id="XMLID_60_" fill-rule="evenodd" clip-rule="evenodd" fill="#EEC3A1" d="M402,378.5l1.5,6.4c0,0,13.8,10.6,18.7,14.2&#10;&#9;&#9;c0,0,9.1,1.9,8.9,7c-0.2,5.1-8.1,5.9-13.6-1.3c0,0-16.2-6.8-19.8-10.4c-3.4-3.8-8.5-12.3-8.5-12.3L402,378.5z"/>
	<path id="XMLID_61_" fill-rule="evenodd" clip-rule="evenodd" fill="#231914" d="M389.2,385.1c0,0,4,0.2,8.7-1.5&#10;&#9;&#9;c4.5-1.7,5.9-3.2,5.9-3.2s-5.7-24.2-16.1-20.6C377.1,363.4,389.2,385.1,389.2,385.1L389.2,385.1z"/>
	<path id="XMLID_62_" fill-rule="evenodd" clip-rule="evenodd" fill="#EEC3A1" d="M392.2,341.3L392.2,341.3c0.4-0.4,0.6-0.6,0.9-0.8&#10;&#9;&#9;c0.2,0,0.2-0.2,0.4-0.2c0.2,0,0.2,0,0.4,0c0.4,0,0.8,0.4,1.3,0.9c0.2,0.2,0.2,0.4,0.4,0.6c0.6,0.8,1.1,2.3,1.5,4&#10;&#9;&#9;c0.6,0.4,1.1,0.6,1.5,0.6c0-0.6,0.2-1.5,0.2-2.5c0-0.6,0-1.3,0-2.1c0-0.2,0-0.6,0-0.9c0-0.6,0-1.3,0-1.7l-1.3-3&#10;&#9;&#9;c0-1.1,0.2-2.3,1.1-3.4c0.6-0.9,1.3-1.5,2.1-1.5h0.2h0.8c1.1,0.6,2.6,1.5,4.5,2.5c1.9,1.1,3.8,1.5,5.9,1.5c1.9,0,3.4-0.4,4-1.1&#10;&#9;&#9;c0.6-0.6,1.1-1.3,1.3-1.7c0.4,1.3,0.6,2.3,0.6,2.8c0,0.9,0,2.1,0,3.6l-0.2,1.9c-0.2,4.3-0.6,7.4-1.3,9.3c-0.6,1.9-1.5,3.4-2.1,4.3&#10;&#9;&#9;l0,0l0,0c-0.4,0.4-0.6,0.9-0.9,1.1c-0.2,0.2-0.4,0.4-0.9,0.6c-0.2,0-0.2,0.2-0.4,0.2c-0.2,0.2-0.4,0.2-0.6,0.4&#10;&#9;&#9;c-0.2,0-0.4,0.2-0.9,0.2c-0.4,0.2-1.1,0.4-1.9,0.2c-1.3,0-2.5-0.2-3.6-0.6c-1.7-0.6-3.4-1.7-4.9-3.4c-1.1-1.1-1.9-2.3-2.8-3.8&#10;&#9;&#9;c-0.4-0.9-0.9-1.7-1.3-2.6c-0.2,0.2-0.2,0.4-0.4,0.4l0,0h-0.2c0,0,0,0-0.2,0c-0.6,0-1.5-0.6-2.3-2.1c-0.6-1.1-1.1-2.1-1.3-3&#10;&#9;&#9;c0,0,0,0,0-0.2v-0.2C391.8,342.4,392,341.8,392.2,341.3L392.2,341.3z"/>
	<path id="XMLID_63_" fill-rule="evenodd" clip-rule="evenodd" d="M406,334.3c1.9,1.1,3.8,1.5,6,1.5c2,0,5.3-0.7,5.5-3.2&#10;&#9;&#9;c-2.2-6.5-7.5-8.7-14-8.7c-5.7,0.4-9.4,3.8-10.4,10.2c-0.4,1.9-0.4,4-0.2,6.6c0.2,0,0.2-0.2,0.4-0.2c0.2,0,0.2,0,0.4,0&#10;&#9;&#9;c0.4,0,0.9,0.4,1.3,0.8c0.2,0.2,0.2,0.4,0.4,0.6c0.6,0.9,1.1,2.3,1.5,4c0.6,0.4,1.8,1.4,2.3,1.4c0-2.3,0.2-5.4,0.2-7.8&#10;&#9;&#9;C400.8,334.6,403,333,406,334.3L406,334.3z"/>
	<path d="M 358.6000061035156 437 L 468.70001220703125 373.6000061035156 L 468.70001220703125 373.6000061035156 L 475.3999938964844 377.3999938964844 L 484.29998779296875 372.3999938964844 L 477.6000061035156 368.5 L 477.6000061035156 368.5 L 492.70001220703125 359.79998779296875 L 550.5 355.6000061035156 L 653.7999877929688 415.1000061035156 L 620.5999755859375 434.29998779296875 L 615.2000122070312 431.1000061035156 L 575 454.20001220703125 L 580.5 457.3999938964844 L 487.29998779296875 511.1000061035156 Z" id="XMLID_64_" fill-rule="evenodd" clip-rule="evenodd" fill="#4A494A"/>
	<path d="M 484.29998779296875 372.3999938964844 L 477.5 368.5 L 477.5 376.29998779296875 Z" id="XMLID_65_" fill-rule="evenodd" clip-rule="evenodd" fill="#302F2D"/>
	<path d="M 358.6000061035156 437 L 487.29998779296875 511.1000061035156 L 487.29998779296875 523.2000122070312 L 358.6000061035156 449 Z" id="XMLID_66_" fill-rule="evenodd" clip-rule="evenodd" fill="#302F2D"/>
	<path id="XMLID_68_" fill-rule="evenodd" clip-rule="evenodd" fill="#141412" d="M487.3,523.2l93.2-53.9v-11.9l-93.2,53.7V523.2z&#10;&#9;&#9; M653.8,426.8v-11.7l-33.2,19.1l0,0v11.6L653.8,426.8z"/>
	<path d="M 615.2000122070312 431.1000061035156 L 615.2000122070312 442.6000061035156 L 620.5999755859375 445.79998779296875 L 620.5999755859375 434.29998779296875 Z" id="XMLID_70_" fill-rule="evenodd" clip-rule="evenodd" fill="#302F2D"/>
	<path d="M 615.2000122070312 431.1000061035156 L 615.2000122070312 442.6000061035156 L 580.5 462.6000061035156 L 580.5 457.3999938964844 L 575 454.20001220703125 Z" id="XMLID_71_" fill-rule="evenodd" clip-rule="evenodd" fill="#141412"/>
	<path d="M 503.3999938964844 383.3999938964844 L 531 367.5 L 521.0999755859375 361.79998779296875 L 493.6000061035156 377.70001220703125 Z" id="XMLID_72_" fill-rule="evenodd" clip-rule="evenodd" fill="#F7DE28"/>
	<path d="M 532.7999877929688 383.6000061035156 L 560.2999877929688 367.70001220703125 L 550.5 362 L 522.9000244140625 377.8999938964844 Z" id="XMLID_73_" fill-rule="evenodd" clip-rule="evenodd" fill="#F7DE28"/>
	<path d="M 546.4000244140625 391.5 L 573.9000244140625 375.6000061035156 L 564.0999755859375 370 L 536.5 385.8999938964844 Z" id="XMLID_74_" fill-rule="evenodd" clip-rule="evenodd" fill="#F7DE28"/>
	<path d="M 560 399.5 L 587.5999755859375 383.6000061035156 L 577.7000122070312 377.8999938964844 L 550.2000122070312 393.79998779296875 Z" id="XMLID_75_" fill-rule="evenodd" clip-rule="evenodd" fill="#F7DE28"/>
	<path d="M 573.5999755859375 407.3999938964844 L 601.2000122070312 391.5 L 591.2999877929688 385.8999938964844 L 563.7999877929688 401.70001220703125 Z" id="XMLID_76_" fill-rule="evenodd" clip-rule="evenodd" fill="#F7DE28"/>
	<path d="M 587.2000122070312 415.3999938964844 L 614.7999877929688 399.5 L 605 393.79998779296875 L 577.4000244140625 409.70001220703125 Z" id="XMLID_77_" fill-rule="evenodd" clip-rule="evenodd" fill="#F7DE28"/>
	<path d="M 600.9000244140625 423.29998779296875 L 628.4000244140625 407.3999938964844 L 618.5999755859375 401.79998779296875 L 591 417.6000061035156 Z" id="XMLID_78_" fill-rule="evenodd" clip-rule="evenodd" fill="#F7DE28"/>
	<path id="XMLID_79_" fill-rule="evenodd" clip-rule="evenodd" fill="#623B15" d="M366.2,616.2c0.4-1.1,2.6-1.9,3.4-1.7&#10;&#9;&#9;c1.7,0.4,5.6,0.9,5.4,0.9c0.2,0.2,3-0.2,3.4,0.2c0.4,0.2,1.3,0.4,2.4,0.6c1.1,0.2,1.5,1.1,1.3,2.1c-0.2,1.1-0.4,1.9-0.9,2.4&#10;&#9;&#9;c-0.4,0.4-1.3,0.9-2.6,1.3l-0.2,0.2c-0.4,0.2-0.9,0.4-1.5,0.9c-0.6,0.6-1.1,1.3-1.7,1.9c-1.5,1.3-4.5,0.9-6.2,0.4&#10;&#9;&#9;C364.9,624.4,365.2,619.5,366.2,616.2L366.2,616.2z"/>
	<path id="XMLID_80_" fill-rule="evenodd" clip-rule="evenodd" fill="#623B15" d="M415.7,617.3c0,0.2,3.2,1.1,3.4,1.1&#10;&#9;&#9;c1.7,0.2,3.9,0.4,5.6,0.6c1.3,0.2,1.9,2.1,1.3,3.2c-0.4,0.9-2.8,2.1-6.9,3.7c-0.6,0.2-1.3,0.4-1.9,0.6s-1.1,0.2-1.7,0.4&#10;&#9;&#9;c-0.6,0-1.1,0.2-1.7,0.2c-0.4,0-1.1,0.4-1.7,0.6c-1.1,0.4-2.1,0.9-3.4,0.6c-1.7,0-4.9-0.9-5.2-3c0-1.5,0.2-3.2,0.4-4.7&#10;&#9;&#9;C406.2,619.2,409,617.3,415.7,617.3L415.7,617.3z"/>
	<path id="XMLID_81_" fill-rule="evenodd" clip-rule="evenodd" fill="#2E2E2F" d="M365.4,541.7c0,0-3.9,10.1,1.7,15.5&#10;&#9;&#9;c4.9,4.5,4.3,17.6,4.7,20c0,0-1.1,4.1-1.9,8.8c-0.9,4.7-1.3,27.1-2.8,30.3c0,0,3.4,3.4,11.8,0c0,0,4.3-29,7.3-32.9&#10;&#9;&#9;c2.8-3.9,0.9-29.4,0.9-29.4l-5.6-8.6L365.4,541.7z"/>
	<path id="XMLID_82_" fill-rule="evenodd" clip-rule="evenodd" fill="#3D3D3E" d="M397.2,548.1c0,0,10.1,17.6,12,23.4&#10;&#9;&#9;c1.9,6,1.3,14.6,2.4,24.1c1.1,9.5,2.8,23.2,2.8,23.2s-6,3.9-10.5,2.4c0,0,0.9-4.3-1.1-9.7c-1.9-5.2-7.3-24.9-6.4-33.3&#10;&#9;&#9;c0,0-9.2-14.4-13.3-16.5c-4.1-2.1-9-10.3-7.1-18.7C377.6,534.6,397.2,548.1,397.2,548.1L397.2,548.1z"/>
	<path id="XMLID_83_" fill-rule="evenodd" clip-rule="evenodd" fill="#EEC3A1" d="M370.3,506.9c-2-8.4,12.3-11.8,16.2-12.7&#10;&#9;&#9;c1.8-0.3,2.9-0.6,3.8-0.6c0-0.2,0.3-0.6,0.4-1c1.2-3.3,4.3-9.3,5.4-13.7c0.7-2.5,1.4-5.2,1.4-5.6c1.9-7.3,1.8-9.3,3.8-8.1&#10;&#9;&#9;c4.5,2.8,2.6,12.5,1.2,13.3c-1,0.5-1.6,6.9-3,12.1c-1.4,5.4-3.6,10.7-6.1,11.4c-3.4,0.7-7.3,2.9-13.8,6.3&#10;&#9;&#9;C373.4,512,370.3,506.9,370.3,506.9L370.3,506.9z"/>
	<path id="XMLID_84_" fill-rule="evenodd" clip-rule="evenodd" fill="#EED97E" d="M369.4,506.5c-0.7-11.3,16.1-14.2,20.4-14.5&#10;&#9;&#9;l4.1,11.9c-3.7,0.8-8.2,1.8-15.3,5.6C371.6,513.5,369.4,506.5,369.4,506.5L369.4,506.5z"/>
	<path id="XMLID_85_" fill-rule="evenodd" clip-rule="evenodd" fill="#F7BE16" d="M370.1,502.3c1.1-2.4,2.8-6.4,10.1-6.7&#10;&#9;&#9;c7.3-0.2,11.8,2.4,13.8,6.2c2.1,4.3,3.4,3,0,16.3c-3.4,13.3,0.6,22.6,4.1,27.9c3.4,5.2,0,4.7,0,4.7s-24.5,6.4-33.5-7.9&#10;&#9;&#9;c0,0,4.3-12.7,4.3-17.6C368.6,520.4,368.4,506.4,370.1,502.3L370.1,502.3z"/>
	<path id="XMLID_86_" fill-rule="evenodd" clip-rule="evenodd" fill="#EEC3A1" d="M393.3,479.1c0,0,1.5,13.5-7.1,15.3&#10;&#9;&#9;c-8.8,1.7-7.5-10.3-7.5-10.3l5.2-7.1L393.3,479.1z"/>
	<path id="XMLID_87_" fill-rule="evenodd" clip-rule="evenodd" fill="#623B15" d="M394,477.8c0,0,0.4-11.2-8.6-12.9&#10;&#9;&#9;c-8.6-1.7-17,1.7-18.1,14.2c-1.1,12.2,9.9,17.4,18.9,15.3c0,0-1.3-5.2-1.1-8.8c0.2-3.6,2.1-6.2,3-0.6&#10;&#9;&#9;C388.1,484.7,392.7,481.1,394,477.8L394,477.8z"/>
	<path id="XMLID_88_" fill-rule="evenodd" clip-rule="evenodd" fill="#EEC3A1" d="M387,512.6c-2-8.4,12.3-11.8,16.2-12.7&#10;&#9;&#9;c1.8-0.3,2.9-0.6,3.8-0.6c0-0.2,0.3-0.6,0.4-1c1.2-3.3,4.3-9.3,5.5-13.7c0.7-2.5,1.3-5.2,1.4-5.6c1.9-7.3,1.8-9.3,3.8-8.1&#10;&#9;&#9;c4.5,2.8,2.6,12.5,1.2,13.3c-1,0.5-1.6,6.9-3,12.1c-1.4,5.4-3.6,10.7-6.1,11.4c-3.4,0.7-7.3,2.9-13.8,6.3&#10;&#9;&#9;C390,517.7,387,512.6,387,512.6L387,512.6z"/>
	<path id="XMLID_89_" fill-rule="evenodd" clip-rule="evenodd" fill="#EED97E" d="M386,512.2c-0.7-11.3,16.1-14.2,20.4-14.5&#10;&#9;&#9;l4.1,11.9c-3.7,0.8-8.2,1.8-15.3,5.6C388.3,519.2,386,512.2,386,512.2L386,512.2z"/>
	<path id="XMLID_90_" fill-rule="evenodd" clip-rule="evenodd" fill="#C3BEBB" d="M528.1,604h35.4l398.7-228.6&#10;&#9;&#9;c20.2-11.7,51.1-12.9,68.5-2.8l143,82.5h38.8v33.3c-0.3,7.7-5.9,15.7-16.7,21.9L778.5,749.7c-20.2,11.7-51.1,12.9-68.6,2.8&#10;&#9;&#9;l-170-98.2c-8.4-4.8-12.2-11.4-11.8-18.2h-0.1V604z"/>
	<path id="XMLID_91_" fill-rule="evenodd" clip-rule="evenodd" fill="#FFFFFF" d="M544.9,582.6c-20.2,11.7-22.5,29.5-4.9,39.6&#10;&#9;&#9;l170,98.2c17.5,10.1,48.4,8.8,68.6-2.9l417.4-239.4c20.2-11.7,22.4-29.5,4.9-39.6l-170.1-98.2c-17.5-10.1-48.4-8.8-68.5,2.8&#10;&#9;&#9;L544.9,582.6z"/>
	<path id="XMLID_92_" fill-rule="evenodd" clip-rule="evenodd" fill="#F2EBE7" d="M715.5,717.2c14.9,8.6,41,7.5,58.3-2.4&#10;&#9;&#9;l417.4-239.4c17.2-9.9,19.1-25,4.2-33.6l-170.1-98.2c-14.9-8.6-41-7.5-58.3,2.4L549.6,585.4c-17.2,9.9-19.1,25-4.2,33.6&#10;&#9;&#9;L715.5,717.2z"/>
	<path d="M 597.7999877929688 568.0999755859375 L 803.5999755859375 687 L 1141.800048828125 493.29998779296875 L 936 374.3999938964844 Z" id="XMLID_93_" fill-rule="evenodd" clip-rule="evenodd" fill="#364154"/>
	<path d="M 936 374.3999938964844 L 803.5999755859375 687 L 1141.800048828125 493.29998779296875 Z" id="XMLID_94_" fill-rule="evenodd" clip-rule="evenodd" fill="#455062"/>
	<path id="XMLID_95_" fill-rule="evenodd" clip-rule="evenodd" fill="#2B3443" d="M750.6,594.4c-9.8,5.6-17,12.3-20.2,18.6&#10;&#9;&#9;c-3.3,6.5-2.5,12.6,3.5,16.5c6.1,4,16.3,4.9,27.6,3c11.2-1.8,23.3-6.3,33.4-12.9c9.8-6.3,15.7-13.3,17.5-19.5&#10;&#9;&#9;c1.7-5.9-0.4-11.1-6.6-14.2c-6.1-3.1-15.1-3.7-24.8-2.2C771.2,585.3,760.5,588.8,750.6,594.4L750.6,594.4z"/>
	<path id="XMLID_96_" fill-rule="evenodd" clip-rule="evenodd" fill="#141412" d="M797.1,604.2c-0.4-1.1-2.6-1.9-3.4-1.7&#10;&#9;&#9;c-1.7,0.4-5.6,0.9-5.4,0.9c-0.2,0.2-3-0.2-3.4,0.2c-0.4,0.2-1.3,0.4-2.4,0.6c-1.1,0.2-1.5,1.1-1.3,2.1c0.2,1.1,0.4,1.9,0.9,2.4&#10;&#9;&#9;c0.4,0.4,1.3,0.9,2.6,1.3l0.2,0.2c0.4,0.2,0.9,0.4,1.5,0.9c0.6,0.6,1.1,1.3,1.7,1.9c1.5,1.3,4.5,0.9,6.2,0.4&#10;&#9;&#9;C798.4,612.3,798.2,607.4,797.1,604.2L797.1,604.2z"/>
	<path id="XMLID_97_" fill-rule="evenodd" clip-rule="evenodd" fill="#141412" d="M747.7,605.3c0,0.2-3.2,1.1-3.4,1.1&#10;&#9;&#9;c-1.7,0.2-3.9,0.4-5.6,0.6c-1.3,0.2-1.9,2.1-1.3,3.2c0.4,0.9,2.8,2.1,6.9,3.6c0.6,0.2,1.3,0.4,1.9,0.6c0.6,0.2,1.1,0.2,1.7,0.4&#10;&#9;&#9;c0.6,0,1.1,0.2,1.7,0.2c0.4,0,1.1,0.4,1.7,0.6c1.1,0.4,2.1,0.9,3.4,0.6c1.7,0,4.9-0.9,5.2-3c0-1.5-0.2-3.2-0.4-4.7&#10;&#9;&#9;C757.2,607.2,754.4,605.3,747.7,605.3L747.7,605.3z"/>
	<path id="XMLID_98_" fill-rule="evenodd" clip-rule="evenodd" fill="#005CAB" d="M798,529.6c0,0,3.9,10.1-1.7,15.5&#10;&#9;&#9;c-4.9,4.5-4.3,17.6-4.7,20c0,0,1.1,4.1,1.9,8.8c0.9,4.7,1.3,27.1,2.8,30.3c0,0-3.4,3.4-11.8,0c0,0-4.3-29-7.3-32.9&#10;&#9;&#9;c-2.8-3.9-0.9-29.4-0.9-29.4l5.6-8.6L798,529.6z"/>
	<path id="XMLID_99_" fill-rule="evenodd" clip-rule="evenodd" fill="#007DC3" d="M766.2,536.1c0,0-10.1,17.6-12,23.4&#10;&#9;&#9;c-1.9,6-1.3,14.6-2.4,24.1c-1.1,9.5-2.8,23.2-2.8,23.2s6,3.9,10.5,2.4c0,0-0.9-4.3,1.1-9.7c1.9-5.2,7.3-24.9,6.4-33.3&#10;&#9;&#9;c0,0,9.2-14.4,13.3-16.5c4.1-2.1,9-10.3,7.1-18.7C785.7,522.5,766.2,536.1,766.2,536.1L766.2,536.1z"/>
	<path id="XMLID_100_" fill-rule="evenodd" clip-rule="evenodd" fill="#EEC3A1" d="M788.4,484.8c-8.6-0.6-9.6,14.1-9.8,18.1&#10;&#9;&#9;c0,1.8-0.1,3,0,3.9c-0.2,0.1-0.5,0.4-0.9,0.6c-3,1.8-8.5,5.7-12.6,7.6c-2.4,1.1-4.9,2.2-5.3,2.3c-6.9,3.1-8.8,3.4-7.3,5.1&#10;&#9;&#9;c3.5,4,12.7,0.5,13.3-1.1c0.3-1,6.5-2.8,11.5-5c5.1-2.3,10-5.3,10.2-7.9c0.1-3.5,1.6-7.6,3.9-14.6&#10;&#9;&#9;C793.9,486.9,788.4,484.8,788.4,484.8L788.4,484.8z"/>
	<path id="XMLID_101_" fill-rule="evenodd" clip-rule="evenodd" fill="#E52D4B" d="M787.9,483.9c-11.2,1.1-11.4,18.2-11,22.5&#10;&#9;&#9;l12.4,2.1c0.2-3.8,0.4-8.4,3-16C795.2,484.9,787.9,483.9,787.9,483.9L787.9,483.9z"/>
	<path id="XMLID_102_" fill-rule="evenodd" clip-rule="evenodd" fill="#E8546A" d="M793.3,490.3c-1.1-2.4-2.8-6.4-10.1-6.7&#10;&#9;&#9;c-7.3-0.2-11.8,2.4-13.8,6.2c-2.1,4.3-3.4,3,0,16.3c3.4,13.3-0.6,22.6-4.1,27.9c-3.4,5.2,0,4.7,0,4.7s24.5,6.4,33.5-8&#10;&#9;&#9;c0,0-4.3-12.7-4.3-17.6C794.8,508.3,795,494.4,793.3,490.3L793.3,490.3z"/>
	<path id="XMLID_103_" fill-rule="evenodd" clip-rule="evenodd" fill="#EEC3A1" d="M770.1,467.1c0,0-1.5,13.5,7.1,15.3&#10;&#9;&#9;c8.8,1.7,7.5-10.3,7.5-10.3l-5.2-7.1L770.1,467.1z"/>
	<path id="XMLID_104_" fill-rule="evenodd" clip-rule="evenodd" fill="#623B15" d="M769.4,465.8c0,0-0.4-11.2,8.6-12.9&#10;&#9;&#9;c8.6-1.7,17,1.7,18.1,14.2c1.1,12.3-9.9,17.4-18.9,15.3c0,0,1.3-5.2,1.1-8.8c-0.2-3.7-2.1-6.2-3-0.6&#10;&#9;&#9;C775.2,472.7,770.7,469,769.4,465.8L769.4,465.8z"/>
	<path id="XMLID_105_" fill-rule="evenodd" clip-rule="evenodd" fill="#EEC3A1" d="M777.5,486.1c-8.6-0.7-9.8,14-10,17.9&#10;&#9;&#9;c-0.1,1.8-0.1,3,0,3.9c-0.2,0.1-0.5,0.4-0.9,0.5c-3,1.7-8.5,5.6-12.7,7.5c-2.4,1-4.9,2.1-5.4,2.3c-6.9,3-8.9,3.3-7.4,5&#10;&#9;&#9;c3.4,4.1,12.7,0.7,13.3-0.9c0.3-1,6.6-2.7,11.5-4.8c5.2-2.2,10-5.2,10.3-7.8c0.2-3.5,1.7-7.6,4.1-14.6&#10;&#9;&#9;C783,488.3,777.5,486.1,777.5,486.1L777.5,486.1z"/>
	<path id="XMLID_106_" fill-rule="evenodd" clip-rule="evenodd" fill="#E52D4B" d="M776.9,485.2c-11.2,1-11.6,18.1-11.2,22.4&#10;&#9;&#9;l12.4,2.2c0.2-3.8,0.5-8.3,3.2-16C784.2,486.4,776.9,485.2,776.9,485.2L776.9,485.2z"/>
</g>

</svg>